<svg width="19" height="19" viewBox="0 0 19 19" fill="none" xmlns="http://www.w3.org/2000/svg">
<path d="M17.7656 0.619385H1.23438C0.836816 0.619385 0.515625 0.940576 0.515625 1.33813V17.8694C0.515625 18.2669 0.836816 18.5881 1.23438 18.5881H17.7656C18.1632 18.5881 18.4844 18.2669 18.4844 17.8694V1.33813C18.4844 0.940576 18.1632 0.619385 17.7656 0.619385ZM11.4429 5.9853H14.5515V6.74224H11.4429V5.9853ZM9.5 12.2272C9.3546 12.5032 9.14698 12.7416 8.89355 12.9235C8.62852 13.1077 8.33428 13.2424 8.02207 13.321C7.69543 13.4086 7.35847 13.4516 7.02031 13.4491H3.30078V5.78765H6.91699C7.28311 5.78765 7.61553 5.82134 7.91875 5.88423C8.21973 5.94712 8.47578 6.05493 8.69141 6.20093C8.90479 6.34692 9.07324 6.54233 9.19228 6.78491C9.30908 7.02524 9.36973 7.32622 9.36973 7.68335C9.36973 8.06968 9.28213 8.38862 9.10693 8.64692C8.92949 8.90522 8.67344 9.11411 8.32529 9.27808C8.79922 9.41284 9.14736 9.65317 9.37646 9.99009C9.61006 10.3315 9.72461 10.7403 9.72461 11.2209C9.72461 11.6118 9.65049 11.9464 9.5 12.2272ZM15.7621 11.0413H11.7551C11.7551 11.477 11.9056 11.8948 12.1324 12.1194C12.3615 12.3417 12.6895 12.4541 13.1185 12.4541C13.4284 12.4541 13.6912 12.3754 13.9158 12.2205C14.1382 12.0655 14.2729 11.9015 14.3224 11.7308H15.6655C15.4499 12.3979 15.122 12.8741 14.6772 13.1616C14.237 13.4491 13.6979 13.5928 13.0713 13.5928C12.6333 13.5928 12.2402 13.5209 11.8876 13.3839C11.5484 13.2514 11.243 13.0493 10.9914 12.7887C10.7434 12.5212 10.5516 12.2065 10.4276 11.8633C10.2906 11.4837 10.2232 11.0839 10.2277 10.6819C10.2277 10.2664 10.2974 9.88003 10.4321 9.52065C10.6904 8.82212 11.2272 8.26284 11.9123 7.9731C12.2784 7.82036 12.6715 7.74399 13.069 7.74849C13.5407 7.74849 13.9495 7.83833 14.3044 8.02251C14.646 8.19838 14.9427 8.45045 15.1714 8.75923C15.3982 9.06694 15.5577 9.41733 15.6588 9.81265C15.7554 10.2012 15.7891 10.61 15.7621 11.0413ZM13.0219 8.89399C12.7793 8.89399 12.5749 8.93667 12.4177 9.01978C12.2604 9.10288 12.1302 9.2062 12.0313 9.32524C11.9372 9.44018 11.8677 9.57319 11.827 9.71606C11.791 9.83511 11.7663 9.9564 11.7573 10.0799H14.2393C14.2033 9.69136 14.0686 9.40386 13.8889 9.20171C13.7002 9.00181 13.397 8.89399 13.0219 8.89399ZM7.44033 8.66714C7.63574 8.52563 7.73008 8.29204 7.73008 7.97085C7.73682 7.81811 7.70537 7.66763 7.63799 7.53062C7.57734 7.42056 7.4875 7.32847 7.37744 7.26333C7.26332 7.19413 7.13658 7.14832 7.00459 7.12856C6.86084 7.10161 6.71484 7.08813 6.57109 7.09038H4.99209V8.88052H6.70137C6.99561 8.88276 7.24492 8.81089 7.44033 8.66714ZM7.70537 10.2843C7.48525 10.1159 7.19102 10.0328 6.8249 10.0328H4.9876V12.1441H6.78896C6.95742 12.1441 7.1124 12.1284 7.26289 12.0969C7.41338 12.0655 7.54814 12.0116 7.6627 11.9352C7.77725 11.8611 7.86934 11.76 7.93896 11.6297C8.00635 11.4995 8.04004 11.3333 8.04004 11.1333C8.04004 10.7358 7.92773 10.455 7.70537 10.2843Z" fill="#D63A8D"/>
</svg>
