<svg width="19" height="22" viewBox="0 0 20 23" fill="none" xmlns="http://www.w3.org/2000/svg">
<path d="M17.8571 1.42859H2.14286C0.959821 1.42859 0 2.38841 0 3.57144V19.2857C0 20.4687 0.959821 21.4286 2.14286 21.4286H17.8571C19.0402 21.4286 20 20.4687 20 19.2857V3.57144C20 2.38841 19.0402 1.42859 17.8571 1.42859ZM12.3795 18.558C12.0045 18.625 11.8661 18.3929 11.8661 18.2009C11.8661 17.9598 11.875 16.7277 11.875 15.7321C11.875 15.0357 11.6429 14.5938 11.3705 14.3616C13.0223 14.1786 14.7634 13.9509 14.7634 11.0982C14.7634 10.2857 14.4732 9.87947 14 9.35715C14.0759 9.16519 14.3304 8.37501 13.9241 7.34822C13.3036 7.15626 11.8839 8.14733 11.8839 8.14733C11.2946 7.98215 10.6563 7.89733 10.0268 7.89733C9.39732 7.89733 8.75893 7.98215 8.16964 8.14733C8.16964 8.14733 6.75 7.15626 6.12946 7.34822C5.72321 8.37054 5.97321 9.16072 6.05357 9.35715C5.58036 9.87947 5.35714 10.2857 5.35714 11.0982C5.35714 13.9375 7.02232 14.1786 8.67411 14.3616C8.45982 14.5536 8.26786 14.8839 8.20089 15.3571C7.77679 15.5491 6.69196 15.8795 6.04464 14.7366C5.63839 14.0313 4.90625 13.9732 4.90625 13.9732C4.18304 13.9643 4.85714 14.4286 4.85714 14.4286C5.33929 14.6518 5.67857 15.5089 5.67857 15.5089C6.11161 16.8348 8.18304 16.3884 8.18304 16.3884C8.18304 17.0089 8.19196 18.0179 8.19196 18.2009C8.19196 18.3929 8.05804 18.625 7.67857 18.558C4.73214 17.5714 2.66964 14.7679 2.66964 11.4911C2.66964 7.39287 5.80357 4.28126 9.90179 4.28126C14 4.28126 17.3214 7.39287 17.3214 11.4911C17.3259 14.7679 15.3259 17.5759 12.3795 18.558ZM8 15.8304C7.91518 15.8482 7.83482 15.8125 7.82589 15.7545C7.81696 15.6875 7.875 15.6295 7.95982 15.6116C8.04464 15.6027 8.125 15.6384 8.13393 15.6964C8.14732 15.7545 8.08929 15.8125 8 15.8304ZM7.57589 15.7902C7.57589 15.8482 7.50893 15.8973 7.41964 15.8973C7.32143 15.9062 7.25446 15.8571 7.25446 15.7902C7.25446 15.7321 7.32143 15.683 7.41071 15.683C7.49554 15.6741 7.57589 15.7232 7.57589 15.7902ZM6.96429 15.7411C6.94643 15.7991 6.85714 15.8259 6.78125 15.7991C6.69643 15.7812 6.63839 15.7143 6.65625 15.6563C6.67411 15.5982 6.76339 15.5714 6.83929 15.5893C6.92857 15.6161 6.98661 15.683 6.96429 15.7411ZM6.41518 15.5C6.375 15.5491 6.29018 15.5402 6.22321 15.4732C6.15625 15.4152 6.13839 15.3304 6.18304 15.2902C6.22321 15.2411 6.30804 15.25 6.375 15.317C6.43304 15.375 6.45536 15.4643 6.41518 15.5ZM6.00893 15.0938C5.96875 15.1205 5.89286 15.0938 5.84375 15.0268C5.79464 14.9598 5.79464 14.8839 5.84375 14.8527C5.89286 14.8125 5.96875 14.8438 6.00893 14.9107C6.05804 14.9777 6.05804 15.058 6.00893 15.0938ZM5.71875 14.6607C5.67857 14.7009 5.61161 14.6786 5.5625 14.6339C5.51339 14.5759 5.50446 14.5089 5.54464 14.4777C5.58482 14.4375 5.65179 14.4598 5.70089 14.5045C5.75 14.5625 5.75893 14.6295 5.71875 14.6607ZM5.41964 14.3304C5.40179 14.3705 5.34375 14.3795 5.29464 14.3482C5.23661 14.3214 5.20982 14.2723 5.22768 14.2321C5.24554 14.2054 5.29464 14.192 5.35268 14.2143C5.41071 14.2455 5.4375 14.2946 5.41964 14.3304Z" fill="#D63A8D"/>
</svg>
