<svg width="20" height="21" viewBox="0 0 20 21" fill="none" xmlns="http://www.w3.org/2000/svg">
<path d="M10 7.62376C9.5095 7.62376 9.03002 7.76921 8.62219 8.04171C8.21435 8.31422 7.89648 8.70154 7.70878 9.15471C7.52107 9.60787 7.47196 10.1065 7.56765 10.5876C7.66334 11.0687 7.89954 11.5106 8.24638 11.8574C8.59321 12.2042 9.0351 12.4404 9.51618 12.5361C9.99725 12.6318 10.4959 12.5827 10.9491 12.395C11.4022 12.2073 11.7895 11.8894 12.062 11.4816C12.3346 11.0737 12.48 10.5943 12.48 10.1038C12.48 9.77808 12.4159 9.45559 12.2912 9.15471C12.1666 8.85382 11.9839 8.58042 11.7536 8.35013C11.5233 8.11985 11.2499 7.93717 10.9491 7.81254C10.6482 7.68791 10.3257 7.62376 10 7.62376ZM19.93 5.17376C19.9247 4.40152 19.7825 3.63633 19.51 2.91376C19.3093 2.38502 18.9987 1.90485 18.5988 1.50495C18.1989 1.10504 17.7187 0.794477 17.19 0.59376C16.4674 0.321224 15.7022 0.179021 14.93 0.17376C13.64 0.10376 13.26 0.10376 10 0.10376C6.74 0.10376 6.36 0.10376 5.07 0.17376C4.29776 0.179021 3.53257 0.321224 2.81 0.59376C2.28126 0.794477 1.80109 1.10504 1.40119 1.50495C1.00128 1.90485 0.690718 2.38502 0.49 2.91376C0.217464 3.63633 0.0752609 4.40152 0.0699999 5.17376C-6.70552e-08 6.46376 0 6.84376 0 10.1038C0 13.3638 -6.70552e-08 13.7438 0.0699999 15.0338C0.0807639 15.8087 0.222774 16.5763 0.49 17.3038C0.689828 17.8301 1.00013 18.3075 1.4 18.7038C1.79819 19.1061 2.27939 19.4166 2.81 19.6138C3.53257 19.8863 4.29776 20.0285 5.07 20.0338C6.36 20.1038 6.74 20.1038 10 20.1038C13.26 20.1038 13.64 20.1038 14.93 20.0338C15.7022 20.0285 16.4674 19.8863 17.19 19.6138C17.7206 19.4166 18.2018 19.1061 18.6 18.7038C18.9999 18.3075 19.3102 17.8301 19.51 17.3038C19.7823 16.5776 19.9244 15.8092 19.93 15.0338C20 13.7438 20 13.3638 20 10.1038C20 6.84376 20 6.46376 19.93 5.17376ZM17.39 13.1738C17.3579 13.7909 17.2262 14.3987 17 14.9738C16.8059 15.4534 16.5173 15.8892 16.1514 16.2551C15.7854 16.621 15.3497 16.9096 14.87 17.1038C14.2895 17.3174 13.6783 17.4356 13.06 17.4538H6.94C6.32173 17.4356 5.71049 17.3174 5.13 17.1038C4.6341 16.9195 4.18628 16.6255 3.82 16.2438C3.45767 15.885 3.17784 15.4516 3 14.9738C2.78556 14.3939 2.67061 13.7819 2.66 13.1638V7.04376C2.67061 6.42559 2.78556 5.81364 3 5.23376C3.18428 4.73786 3.47827 4.29004 3.86 3.92376C4.22033 3.56338 4.65326 3.28385 5.13 3.10376C5.71049 2.89017 6.32173 2.77197 6.94 2.75376H13.06C13.6783 2.77197 14.2895 2.89017 14.87 3.10376C15.3659 3.28804 15.8137 3.58203 16.18 3.96376C16.5423 4.32251 16.8222 4.75589 17 5.23376C17.2136 5.81425 17.3318 6.42549 17.35 7.04376V10.1038C17.35 12.1638 17.42 12.3738 17.39 13.1638V13.1738ZM15.79 5.73376C15.6709 5.41074 15.4832 5.1174 15.2398 4.87397C14.9964 4.63054 14.703 4.44282 14.38 4.32376C13.9365 4.17002 13.4693 4.09555 13 4.10376H7C6.52827 4.10837 6.06107 4.19639 5.62 4.36376C5.30193 4.47742 5.01169 4.65747 4.76858 4.89196C4.52547 5.12645 4.33506 5.41 4.21 5.72376C4.06478 6.16913 3.99383 6.63535 4 7.10376V13.1038C4.00991 13.575 4.09777 14.0413 4.26 14.4838C4.37906 14.8068 4.56678 15.1001 4.81021 15.3435C5.05364 15.587 5.34698 15.7747 5.67 15.8938C6.09667 16.0507 6.54565 16.1384 7 16.1538H13C13.4717 16.1491 13.9389 16.0611 14.38 15.8938C14.703 15.7747 14.9964 15.587 15.2398 15.3435C15.4832 15.1001 15.6709 14.8068 15.79 14.4838C15.9574 14.0427 16.0454 13.5755 16.05 13.1038V7.10376C16.0503 6.63156 15.9621 6.16348 15.79 5.72376V5.73376ZM10 13.9238C9.49882 13.9238 9.00257 13.8249 8.53966 13.6328C8.07676 13.4407 7.6563 13.1592 7.30238 12.8043C6.94846 12.4495 6.66803 12.0283 6.47714 11.5649C6.28626 11.1014 6.18868 10.6049 6.19 10.1038C6.19 9.34781 6.4143 8.60886 6.83449 7.98045C7.25468 7.35204 7.85187 6.86242 8.55047 6.57359C9.24907 6.28476 10.0177 6.2097 10.7589 6.35791C11.5002 6.50612 12.1808 6.87093 12.7147 7.40617C13.2485 7.9414 13.6116 8.623 13.7578 9.36466C13.9041 10.1063 13.827 10.8747 13.5363 11.5726C13.2457 12.2704 12.7545 12.8663 12.125 13.2848C11.4955 13.7034 10.7559 13.9257 10 13.9238ZM14 7.03376C13.7789 7.01036 13.5744 6.90598 13.4257 6.74073C13.277 6.57548 13.1947 6.36105 13.1947 6.13876C13.1947 5.91647 13.277 5.70204 13.4257 5.53679C13.5744 5.37154 13.7789 5.26716 14 5.24376C14.2211 5.26716 14.4256 5.37154 14.5743 5.53679C14.723 5.70204 14.8053 5.91647 14.8053 6.13876C14.8053 6.36105 14.723 6.57548 14.5743 6.74073C14.4256 6.90598 14.2211 7.01036 14 7.03376Z" fill="#D63A8D"/>
</svg>
