<svg width="18" height="19" viewBox="0 0 18 19" fill="none" xmlns="http://www.w3.org/2000/svg">
<path d="M16 0.10376C16.5304 0.10376 17.0391 0.314473 17.4142 0.689546C17.7893 1.06462 18 1.57333 18 2.10376V16.1038C18 16.6342 17.7893 17.1429 17.4142 17.518C17.0391 17.893 16.5304 18.1038 16 18.1038H2C1.46957 18.1038 0.960859 17.893 0.585786 17.518C0.210714 17.1429 0 16.6342 0 16.1038V2.10376C0 1.57333 0.210714 1.06462 0.585786 0.689546C0.960859 0.314473 1.46957 0.10376 2 0.10376H16ZM15.5 15.6038V10.3038C15.5 9.43915 15.1565 8.60996 14.5452 7.99859C13.9338 7.38722 13.1046 7.04376 12.24 7.04376C11.39 7.04376 10.4 7.56376 9.92 8.34376V7.23376H7.13V15.6038H9.92V10.6738C9.92 9.90376 10.54 9.27376 11.31 9.27376C11.6813 9.27376 12.0374 9.42126 12.2999 9.68381C12.5625 9.94636 12.71 10.3025 12.71 10.6738V15.6038H15.5ZM3.88 5.66376C4.32556 5.66376 4.75288 5.48676 5.06794 5.1717C5.383 4.85664 5.56 4.42932 5.56 3.98376C5.56 3.05376 4.81 2.29376 3.88 2.29376C3.43178 2.29376 3.00193 2.47181 2.68499 2.78875C2.36805 3.10569 2.19 3.53554 2.19 3.98376C2.19 4.91376 2.95 5.66376 3.88 5.66376ZM5.27 15.6038V7.23376H2.5V15.6038H5.27Z" fill="#D63A8D"/>
</svg>
