<?xml version="1.0" encoding="UTF-8" standalone="no"?>
<svg
   data-name="Capa 3"
   viewBox="0 0 123.18328 125.31887"
   version="1.1"
   id="svg6"
   sodipodi:docname="2782040080f541374411be76ef3058cd.svg"
   width="123.18328"
   height="125.31887"
   xmlns:inkscape="http://www.inkscape.org/namespaces/inkscape"
   xmlns:sodipodi="http://sodipodi.sourceforge.net/DTD/sodipodi-0.dtd"
   xmlns="http://www.w3.org/2000/svg"
   xmlns:svg="http://www.w3.org/2000/svg">
  <defs
     id="defs10" />
  <sodipodi:namedview
     id="namedview8"
     pagecolor="#ffffff"
     bordercolor="#666666"
     borderopacity="1.0"
     inkscape:pageshadow="2"
     inkscape:pageopacity="0.0"
     inkscape:pagecheckerboard="0" />
  <path
     d="m 60.147433,47.020304 0.5,75.219996 c 0.01,1.86 -2.24,2.79 -3.54,1.46 l -42.45,-43.199996 c -1.65,-1.68 0.33,-4.37 2.42,-3.29 l 16.2,8.31 c 0.85,0.44 1.86,-0.18 1.86,-1.14 v -29.21 c 0,-0.77 -0.68,-1.37 -1.45,-1.27 l -30.3400004,4.04 c -1.97,0.26 -3.14999998,-2.13 -1.74,-3.53 l 53.0800004,-52.72 c 1.3,-1.29000004 3.42,0.15 2.71,1.83 l -12.52,29.72 c -0.84,2 0.07,4.3 2.05,5.18 l 10.7,4.75 c 1.52,0.68 2.51,2.18 2.52,3.85 z"
     style="fill:none;stroke:#1d1d1b;stroke-width:2px;stroke-miterlimit:10"
     id="path2" />
  <path
     d="m 121.80743,54.640304 -49.919997,-52.78 c -1.71,-1.81000004 -4.75,-0.6 -4.75,1.89 v 27.56 c 0,1.69 1.01,3.22 2.56,3.89 l 50.469997,21.76 c 1.45,0.62 2.71,-1.18 1.63,-2.33 z m -48.109997,-6.84 45.169997,20.01 c 2.89,1.28 3.55,5.09 1.25,7.26 l -10.57,9.99 a 5.797,5.797 0 0 1 -6.27,1.11 l -32.489997,-13.94 a 4.362,4.362 0 0 1 -2.64,-3.99 l -0.08,-16.75 c -0.01,-2.91 2.98,-4.87 5.64,-3.69 z"
     style="fill:none;stroke:#d53a8d;stroke-width:2px;stroke-miterlimit:10"
     id="path4" />
</svg>
